<svg width="100" height="96" viewBox="0 0 100 96" fill="none" xmlns="http://www.w3.org/2000/svg">
<path d="M12.2596 84.5341C9.47596 78.5633 9.10494 71.838 11.2148 65.5973C13.9417 57.5322 20.4931 51.3612 28.7403 49.0898L30.926 56.9571C25.3061 58.505 20.8422 62.7085 18.9849 68.2017C17.5479 72.4519 17.8004 77.0318 19.696 81.0974L12.2596 84.5342V84.5341Z" fill="#DDC9A3"/>
<path d="M12.6883 95.3187C11.7926 95.3187 10.929 94.8299 10.4946 93.9806C8.0786 89.2564 9.97318 83.4557 14.7181 81.0499C19.4628 78.6438 25.2892 80.5306 27.7056 85.2548C28.3219 86.46 27.8402 87.9345 26.6298 88.5483C25.4197 89.1616 23.9382 88.6823 23.322 87.4772C22.7477 86.3543 21.7687 85.5215 20.5653 85.1317C19.3616 84.7419 18.078 84.8421 16.9502 85.4141C14.6223 86.5944 13.6927 89.4402 14.8781 91.758C15.4944 92.9632 15.0127 94.4377 13.8024 95.0514C13.4449 95.2326 13.0637 95.3185 12.6882 95.3185L12.6883 95.3187Z" fill="#A57F2C"/>
<path d="M76.26 53.6139C72.8014 56.5505 68.6561 58.5057 64.1514 59.3079L62.708 51.2725C66.2655 50.6391 69.4957 48.9467 72.0493 46.377C75.2177 43.1891 77.0143 38.9656 77.1081 34.4844L85.3048 34.6546C85.1672 41.2356 82.5292 47.4376 77.877 52.1188C77.3568 52.642 76.8173 53.1408 76.2601 53.6139H76.26Z" fill="#DDC9A3"/>
<path d="M87.6606 34.421C85.9579 35.8667 83.8231 36.6719 81.5571 36.707C78.9779 36.747 76.5375 35.7843 74.6854 33.9969C72.8335 32.2094 71.7913 29.8109 71.7513 27.2429C71.7302 25.8909 72.814 24.7773 74.1723 24.7563C75.5305 24.7354 76.6486 25.8145 76.6698 27.1668C76.7105 29.7675 78.8686 31.8504 81.4805 31.8099C82.7458 31.7904 83.9285 31.2824 84.8086 30.3766C85.6895 29.4719 86.1638 28.28 86.1441 27.0201C86.1229 25.6679 87.207 24.5546 88.5652 24.5335C89.9233 24.5126 91.0414 25.5917 91.0627 26.944C91.1028 29.5119 90.1359 31.9416 88.3407 33.7857C88.1228 34.0094 87.8956 34.2214 87.6606 34.4211V34.421Z" fill="#A57F2C"/>
<path d="M23.2349 49.5176L28.6695 80.1222C30.1197 88.2886 37.2477 94.2408 45.5772 94.2408C53.6847 94.2408 60.6873 88.5944 62.3721 80.6985L69.0256 49.5176H23.2349Z" fill="#DDC9A3"/>
<path d="M46.1303 56.2567C58.7751 56.2567 69.0258 53.2392 69.0258 49.517C69.0258 45.7948 58.7751 42.7773 46.1303 42.7773C33.4855 42.7773 23.2349 45.7948 23.2349 49.517C23.2349 53.2392 33.4855 56.2567 46.1303 56.2567Z" fill="#A57F2C"/>
<path d="M54.277 66.8105H38.2516C36.7335 66.8105 35.5029 68.0358 35.5029 69.5472V77.2659C35.5029 78.7774 36.7335 80.0026 38.2516 80.0026H54.277C55.795 80.0026 57.0256 78.7774 57.0256 77.2659V69.5472C57.0256 68.0358 55.795 66.8105 54.277 66.8105Z" fill="#A57F2C"/>
<path d="M44.5279 73.6524H43.5752C43.5752 72.4027 44.144 70.6803 46.853 69.5725C48.44 68.9235 47.9145 66.5255 47.9091 66.5013L48.8376 66.2891C48.8679 66.4196 49.5506 69.495 47.2151 70.4501C45.4319 71.1791 44.5279 72.2566 44.5279 73.6524Z" fill="#DDC9A3"/>
<path d="M53.0757 80.557C52.1491 78.8272 51.7626 78.8615 50.1322 79.0058C49.6015 79.0528 48.941 79.1114 48.1346 79.1114C44.5258 79.1114 44.1504 76.4963 44.147 76.4697L45.092 76.3502L44.6194 76.4099L45.0914 76.3457C45.1023 76.4198 45.3912 78.1628 48.1344 78.1628C48.8984 78.1628 49.509 78.1087 50.0477 78.061C51.882 77.8983 52.7423 77.919 53.9162 80.1106L53.0756 80.557H53.0757Z" fill="#DDC9A3"/>
<path d="M42.0629 74.1387C42.0313 74.1387 41.9993 74.1313 41.9692 74.116L40.9396 73.5869C40.8395 73.5354 40.8002 73.4127 40.8518 73.313C40.9037 73.2131 41.027 73.1746 41.1269 73.2256L42.1565 73.7548C42.2565 73.8063 42.2959 73.9289 42.2443 74.0286C42.2079 74.0986 42.1368 74.1387 42.0629 74.1387Z" fill="#FDF8E3"/>
<path d="M40.8184 76.1512C40.7362 76.1512 40.6586 76.1013 40.6277 76.0201C40.5875 75.9152 40.6405 75.7977 40.7457 75.7578L41.8287 75.3473C41.934 75.3075 42.0522 75.36 42.0922 75.4649C42.1323 75.5698 42.0794 75.6873 41.9742 75.7273L40.8912 76.1377C40.8672 76.1468 40.8427 76.1512 40.8185 76.1512H40.8184Z" fill="#FDF8E3"/>
<path d="M47.3315 75.3156C47.2336 75.3156 47.1472 75.2454 47.1303 75.1462C47.1115 75.0355 47.1865 74.9306 47.2976 74.9119L48.4403 74.7196C48.5511 74.7012 48.6569 74.7754 48.6757 74.8861C48.6944 74.9969 48.6194 75.1017 48.5084 75.1204L47.3656 75.3127C47.3541 75.3146 47.3426 75.3156 47.3313 75.3156H47.3315Z" fill="#FDF8E3"/>
<path d="M46.4956 73.9387C46.4583 73.9387 46.4206 73.9285 46.3867 73.9074C46.2914 73.8475 46.2628 73.7219 46.323 73.627L46.9416 72.6513C47.0018 72.5563 47.1279 72.5283 47.2232 72.5879C47.3185 72.6478 47.3471 72.7734 47.2869 72.8683L46.6683 73.844C46.6295 73.9052 46.5632 73.9387 46.4955 73.9387H46.4956Z" fill="#FDF8E3"/>
<path d="M58.149 72.9441C56.167 72.9441 54.5135 72.405 53.221 71.335C50.8331 69.3579 50.577 66.3063 50.5674 66.1773L51.5174 66.1063L51.0424 66.1418L51.5173 66.1055C51.5196 66.1332 51.7601 68.8978 53.8376 70.6116C55.1985 71.7343 57.0541 72.1772 59.3561 71.9276L59.4593 72.8706C59.0079 72.9195 58.571 72.9441 58.149 72.9441Z" fill="#DDC9A3"/>
<path d="M33.3103 78.8387L33.1343 77.9064C36.7869 77.2226 36.7842 75.7096 36.7811 73.9579C36.779 72.7781 36.7767 71.441 38.1726 70.6592C40.7687 69.2051 40.5608 65.9089 40.5584 65.8758L41.5084 65.8047C41.5205 65.9642 41.7712 69.7318 38.6396 71.4859C37.7744 71.9706 37.7316 72.7403 37.7338 73.9561C37.7371 75.7618 37.7412 78.009 33.3103 78.8386V78.8387Z" fill="#DDC9A3"/>
<path d="M61.4656 51.6215C61.4478 51.6215 61.4297 51.6197 61.4117 51.6161C60.3805 51.4096 58.4348 50.5314 58.4523 48.6869C58.4595 47.9298 58.7954 47.2895 59.4102 46.8413C59.1339 46.3525 59.0159 45.7381 59.1569 45.0066C59.5457 42.9887 61.5864 42.6352 62.6115 42.7309C62.7612 42.7448 62.8712 42.8768 62.8573 43.0259C62.8433 43.1747 62.7132 43.2851 62.5614 43.2706C62.4608 43.2613 60.084 43.0722 59.6915 45.1088C59.5749 45.7147 59.67 46.1932 59.8771 46.5641C60.8876 46.0787 62.2716 46.0758 62.907 46.5599C63.1795 46.7675 63.2969 47.0514 63.2376 47.3593C63.1105 48.0192 62.3326 48.3482 61.3474 48.1601C60.744 48.0448 60.1536 47.7476 59.7289 47.2811C59.3462 47.5612 59.0031 48.0039 58.9967 48.692C58.9791 50.5485 61.4941 51.0797 61.5194 51.0847C61.6667 51.1145 61.7618 51.2575 61.732 51.4041C61.706 51.5327 61.5925 51.6215 61.4656 51.6215ZM60.2188 47.0044C60.5902 47.362 61.0721 47.5556 61.4498 47.6278C62.0992 47.7517 62.6382 47.5926 62.7028 47.2572C62.7162 47.1881 62.7137 47.0954 62.576 46.9904C62.1648 46.6772 61.0943 46.6264 60.2188 47.0044Z" fill="#FDF8E3"/>
<path d="M38.1986 49.5848C38.1157 49.5848 38.0339 49.5473 37.9805 49.4763C37.8905 49.3566 37.9149 49.187 38.0346 49.0972C38.0934 49.0531 39.4637 48.0012 38.6845 46.7248C38.4619 46.36 38.1959 46.1625 37.9395 46.0614C37.5992 46.8333 36.8298 47.512 36.2254 47.5619C35.9428 47.5853 35.7104 47.4748 35.5734 47.2506C35.4217 47.002 35.4278 46.7021 35.5906 46.4061C35.894 45.8545 36.6485 45.4421 37.3846 45.4256C37.4458 45.4245 37.5069 45.4256 37.567 45.4295C37.6195 45.1105 37.5738 44.7377 37.2662 44.3928C36.3709 43.3892 34.7542 44.3298 34.7382 44.3394C34.6087 44.4161 34.4417 44.3737 34.365 44.2453C34.2882 44.1167 34.3304 43.9502 34.4596 43.8737C34.5418 43.8249 36.4826 42.6978 37.6731 44.0328C38.0546 44.4603 38.2001 44.9845 38.1005 45.5421C38.5211 45.6974 38.8815 46.0039 39.1497 46.4434C39.9794 47.8023 38.9968 49.0573 38.3613 49.5309C38.3124 49.5673 38.2553 49.585 38.1985 49.585L38.1986 49.5848ZM37.3817 45.9676C36.7893 45.9866 36.25 46.3359 36.0683 46.6662C36.0009 46.7887 35.9911 46.8904 36.0389 46.9689C36.0529 46.9917 36.0765 47.0291 36.1807 47.0215C36.5224 46.9933 37.0827 46.5418 37.3817 45.9676Z" fill="#FDF8E3"/>
<path d="M68.0058 27.0197C69.3992 36.8314 60.1524 42.9485 47.9187 44.6709C35.6851 46.3932 25.0972 43.0684 23.7038 33.2569C22.3103 23.4453 30.6389 10.8621 42.8725 9.13975C55.1062 7.4174 66.6124 17.2081 68.0058 27.0197Z" fill="#DDC9A3"/>
<path d="M56.27 16.5281L43.6702 18.3019C39.7207 18.8579 36.9717 22.4963 37.5302 26.4286C38.0886 30.3608 41.743 33.0978 45.6925 32.5418L58.2923 30.768C62.2417 30.212 64.9907 26.5736 64.4323 22.6413C63.8738 18.7091 60.2195 15.9721 56.27 16.5281Z" fill="#FDF8E3"/>
<path d="M41.789 1.54598L40.812 1.73242L42.6989 11.5343L43.6759 11.3479L41.789 1.54598Z" fill="#DDC9A3"/>
<path d="M41.4402 4.17501C42.4443 4.17501 43.2583 3.36458 43.2583 2.36485C43.2583 1.36513 42.4443 0.554688 41.4402 0.554688C40.4361 0.554688 39.6221 1.36513 39.6221 2.36485C39.6221 3.36458 40.4361 4.17501 41.4402 4.17501Z" fill="#A57F2C"/>
<path d="M48.2645 28.0709C48.0937 28.0709 47.9214 28.0177 47.7742 27.9075L42.424 23.9004C42.0636 23.6305 41.991 23.1208 42.2623 22.7619C42.5333 22.4032 43.0454 22.3308 43.4057 22.6009L48.756 26.6079C49.1164 26.8779 49.1889 27.3875 48.9177 27.7465C48.7572 27.9589 48.5122 28.0709 48.2644 28.0709H48.2645Z" fill="#A57F2C"/>
<path d="M43.5768 28.7306C43.4059 28.7306 43.2337 28.6774 43.0866 28.5672C42.7262 28.2973 42.6536 27.7875 42.9249 27.4286L46.9495 22.1017C47.2205 21.7428 47.7328 21.6708 48.0929 21.9407C48.4533 22.2106 48.5259 22.7204 48.2546 23.0793L44.23 28.4062C44.0695 28.6186 43.8245 28.7306 43.5767 28.7306H43.5768Z" fill="#A57F2C"/>
<path d="M59.8832 26.4342C59.7123 26.4342 59.54 26.381 59.3929 26.2708L54.0426 22.2637C53.6822 21.9938 53.6097 21.4841 53.8809 21.1251C54.1519 20.7664 54.6639 20.6941 55.0243 20.9642L60.3746 24.9712C60.735 25.2412 60.8076 25.7508 60.5363 26.1098C60.3759 26.3221 60.1309 26.4342 59.883 26.4342H59.8832Z" fill="#A57F2C"/>
<path d="M55.1959 27.0939C55.0251 27.0939 54.8528 27.0407 54.7057 26.9305C54.3453 26.6606 54.2728 26.1509 54.544 25.7919L58.5685 20.465C58.8395 20.1063 59.3516 20.0339 59.7119 20.304C60.0723 20.5739 60.1449 21.0836 59.8736 21.4426L55.8491 26.7695C55.6887 26.9819 55.4438 27.0939 55.1959 27.0939Z" fill="#A57F2C"/>
<path d="M52.1123 34.766C52.412 34.3693 52.8368 34.0911 53.3277 33.9739C53.8866 33.8406 54.4641 33.9318 54.9539 34.2308C55.4438 34.5299 55.7873 35.0009 55.9212 35.5573C55.9917 35.8502 55.8104 36.1448 55.5162 36.215C55.2219 36.2852 54.9261 36.1047 54.8556 35.8117C54.7199 35.2482 54.1491 34.8997 53.5833 35.0348C53.3092 35.1003 53.0769 35.2679 52.9296 35.5073C52.7822 35.7467 52.7373 36.0287 52.8029 36.3016C52.8735 36.5946 52.6921 36.889 52.3979 36.9592C52.1036 37.0294 51.8078 36.8489 51.7373 36.5559C51.6034 35.9995 51.695 35.4245 51.9954 34.9368C52.0319 34.8776 52.0709 34.8206 52.1123 34.7658V34.766Z" fill="#A57F2C"/>
</svg>
