<svg width="20" height="20" viewBox="0 0 20 20" fill="none" xmlns="http://www.w3.org/2000/svg">
<g clip-path="url(#clip0_4850_172)">
<path d="M10.0324 0C10.6559 0 11.1614 0.497467 11.1614 1.11111C11.1614 1.68092 10.7256 2.15056 10.164 2.21475L10.0324 2.22222H4.38714C3.80813 2.22222 3.33091 2.65116 3.26569 3.20376L3.25809 3.33333V16.6667C3.25809 17.2365 3.69395 17.7061 4.25547 17.7703L4.38714 17.7778H9.46784C10.0914 17.7778 10.5969 18.2752 10.5969 18.8889C10.5969 19.4587 10.161 19.9283 9.59951 19.9925L9.46784 20H4.38714C2.58329 20 1.10877 18.6124 1.00575 16.8625L1 16.6667V3.33333C1 1.55814 2.41009 0.107044 4.18812 0.00565847L4.38714 0H10.0324ZM16.4758 6.07163L19.6693 9.21433C20.1102 9.64822 20.1102 10.3518 19.6693 10.7857L16.4758 13.9283C16.0349 14.3623 15.3201 14.3623 14.8791 13.9283C14.4382 13.4944 14.4382 12.7909 14.8791 12.357L16.1452 11.1111H10.0324C9.40879 11.1111 8.90332 10.6137 8.90332 10C8.90332 9.38633 9.40879 8.88889 10.0324 8.88889H16.1452L14.8791 7.64298C14.4382 7.20907 14.4382 6.50554 14.8791 6.07163C15.3201 5.63771 16.0349 5.63771 16.4758 6.07163Z" fill="#611232"/>
</g>
<defs>
<clipPath id="clip0_4850_172">
<rect width="20" height="20" fill="white"/>
</clipPath>
</defs>
</svg>
