<svg width="24" height="24" viewBox="0 0 24 24" fill="none" xmlns="http://www.w3.org/2000/svg">
<g clip-path="url(#clip0_4534_3948)">
<path d="M20.0247 17.0957C22.7018 14.7067 24.1811 11.9997 24.1811 11.9997C24.1811 11.9997 19.4597 3.34375 11.5906 3.34375C10.079 3.3477 8.58436 3.6627 7.19971 4.26915L8.41154 5.48256C9.43094 5.1131 10.5064 4.92198 11.5906 4.91756C14.9271 4.91756 17.6955 6.75577 19.7241 8.78442C20.7015 9.76503 21.5768 10.8423 22.3366 11.9997C22.2464 12.1361 22.1441 12.2872 22.0297 12.453C21.5025 13.2084 20.7235 14.2156 19.7241 15.215C19.4649 15.4752 19.1937 15.7302 18.9104 15.9799L20.0247 17.0957Z" fill="#611232"/>
<path d="M16.7794 13.8511C17.1306 12.8687 17.1957 11.8069 16.967 10.7891C16.7383 9.77125 16.2253 8.83929 15.4876 8.10164C14.75 7.36398 13.818 6.85096 12.8002 6.62227C11.7824 6.39358 10.7205 6.45862 9.73821 6.80982L11.0335 8.10507C11.6383 8.0185 12.255 8.07398 12.8346 8.26711C13.4143 8.46025 13.941 8.78573 14.3731 9.21777C14.8051 9.64981 15.1306 10.1765 15.3237 10.7562C15.5169 11.3359 15.5723 11.9526 15.4858 12.5574L16.7794 13.8511ZM12.1477 15.8954L13.4414 17.1891C12.4591 17.5403 11.3972 17.6054 10.3794 17.3767C9.36159 17.148 8.42963 16.635 7.69197 15.8973C6.95432 15.1596 6.44129 14.2277 6.2126 13.2099C5.98391 12.192 6.04895 11.1302 6.40016 10.1479L7.6954 11.4431C7.60883 12.048 7.66431 12.6646 7.85745 13.2443C8.05058 13.824 8.37607 14.3507 8.8081 14.7827C9.24014 15.2148 9.76687 15.5403 10.3465 15.7334C10.9262 15.9265 11.5429 15.982 12.1477 15.8954Z" fill="#611232"/>
<path d="M4.27227 8.01826C3.98898 8.27007 3.71724 8.52555 3.45704 8.7847C2.47964 9.76531 1.60432 10.8426 0.844507 12L1.1514 12.4533C1.67863 13.2087 2.45766 14.2159 3.45704 15.2153C5.48568 17.2439 8.25559 19.0822 11.5905 19.0822C12.7173 19.0822 13.7781 18.8728 14.7696 18.5156L15.9814 19.7306C14.5968 20.337 13.1021 20.652 11.5905 20.656C3.72144 20.656 -1 12 -1 12C-1 12 0.477809 9.29147 3.15644 6.904L4.2707 8.01983L4.27227 8.01826ZM20.4762 22L1.59049 3.11426L2.70475 2L21.5905 20.8857L20.4762 22Z" fill="#611232"/>
</g>
<defs>
<clipPath id="clip0_4534_3948">
<rect width="24" height="24" fill="white"/>
</clipPath>
</defs>
</svg>
