<svg width="24" height="24" viewBox="0 0 24 24" fill="none" xmlns="http://www.w3.org/2000/svg">
<rect width="24" height="24" rx="4" fill="#FDF8E3"/>
<path d="M16.2438 13.1279C17.0667 12.0917 18.1333 10.6594 18.1333 8.19079C18.1333 8.00794 18.0114 7.88603 17.8286 7.88603C17.6457 7.88603 17.5238 8.00794 17.5238 8.19079C17.5238 10.2327 16.7619 11.4517 16 12.427C15.8172 11.8479 15.6952 11.147 15.6952 10.3241C15.6952 10.1717 15.5733 10.0194 15.3905 10.0194C15.2381 10.0194 15.0857 10.1413 15.0857 10.3241C15.0552 10.8422 14.9029 11.4213 14.781 11.4822C14.6591 11.4822 14.5067 11.0555 14.4762 10.6289C14.4762 10.4765 14.3238 10.3546 14.1714 10.3546C14.0191 10.3546 13.8667 10.446 13.8667 10.6289C13.7752 11.147 13.5314 11.8784 13.2572 11.8784C13.1352 11.8784 13.0743 11.8479 13.0438 11.787C12.9524 11.6955 12.9219 11.4822 12.9219 11.2993C12.9219 11.1774 12.9524 11.0555 12.9524 10.9336C12.9524 10.7813 12.8305 10.6289 12.6781 10.6289C12.5257 10.6289 12.3733 10.7203 12.3429 10.8727C12.3429 10.9032 12.3124 11.0251 12.3124 11.2079C12.2514 11.726 12.0686 12.7622 11.4286 12.7622C11.2152 12.7622 11.0933 12.7012 11.0019 12.5489C10.8495 12.3051 10.8495 11.9089 11.0019 11.5432V11.5127C11.0324 11.4822 11.0324 11.4213 11.0629 11.3908C11.3067 10.9032 11.581 10.6289 12.0381 10.6289C12.221 10.6289 12.3429 10.507 12.3429 10.3241C12.3429 10.1413 12.221 10.0194 12.0381 10.0194C10.7581 10.0194 10.3924 11.2689 10.0267 12.4574C9.60001 13.9203 9.20382 14.8955 8.0762 14.8955C6.52191 14.8955 5.94287 12.8841 5.94287 11.5432C5.94287 8.92222 7.37525 7.27651 8.68572 7.27651C9.56953 7.27651 9.90477 7.97746 9.93525 8.00794C9.9962 8.16032 10.1791 8.22127 10.3314 8.16032C10.4838 8.09936 10.5448 7.91651 10.4838 7.76413C10.4533 7.70318 9.96572 6.66699 8.68572 6.66699C7.04001 6.66699 5.33334 8.49555 5.33334 11.5432C5.33334 14.6822 7.13144 15.505 8.0762 15.505C9.63049 15.505 10.1486 14.1336 10.5448 12.9146C10.7581 13.1889 11.0629 13.3717 11.4286 13.3717C12.0991 13.3717 12.4952 12.8841 12.7086 12.2746C12.861 12.3965 13.0438 12.4574 13.2572 12.4574C13.6838 12.4574 13.9886 12.0917 14.1714 11.726C14.2933 11.9393 14.5067 12.0917 14.781 12.0917C14.9638 12.0917 15.1162 12.0003 15.2381 11.8784C15.3295 12.3051 15.4514 12.7012 15.5429 13.0365C15.1162 13.585 14.781 14.0422 14.781 14.5908C14.781 15.1088 15.1772 15.505 15.6952 15.505C16.2438 15.505 16.6095 15.0174 16.6095 14.5908C16.6095 14.1946 16.4572 13.7679 16.2743 13.2803C16.2743 13.2193 16.2438 13.1889 16.2438 13.1279ZM15.6952 14.8955C15.4819 14.8955 15.3905 14.7431 15.3905 14.5908C15.3905 14.3165 15.5429 14.0422 15.7867 13.707C15.9086 14.0727 16 14.3469 16 14.5908C16 14.6822 15.9086 14.8955 15.6952 14.8955Z" fill="#A57F2C"/>
<path d="M5.33334 17.0284C5.33334 16.8601 5.46979 16.7236 5.6381 16.7236H17.8286C17.9969 16.7236 18.1333 16.8601 18.1333 17.0284C18.1333 17.1967 17.9969 17.3332 17.8286 17.3332H5.6381C5.46979 17.3332 5.33334 17.1967 5.33334 17.0284Z" fill="#A57F2C"/>
</svg>
