<svg xmlns="http://www.w3.org/2000/svg" viewBox="0 0 1920 1920" width="1920" height="1920">
  <path d="M 831.0 258.0 L 782.0 276.0 L 733.0 301.0 L 686.0 333.0 L 650.0 364.0 L 612.0 405.0 L 572.0 461.0 L 546.0 509.0 L 526.0 557.0 L 505.0 629.0 L 495.0 686.0 L 492.0 716.0 L 490.0 793.0 L 493.0 832.0 L 499.0 866.0 L 484.0 869.0 L 477.0 873.0 L 469.0 881.0 L 460.0 899.0 L 455.0 925.0 L 455.0 966.0 L 458.0 989.0 L 478.0 1068.0 L 494.0 1157.0 L 501.0 1174.0 L 515.0 1190.0 L 532.0 1200.0 L 552.0 1206.0 L 556.0 1229.0 L 573.0 1283.0 L 589.0 1318.0 L 603.0 1343.0 L 624.0 1374.0 L 661.0 1417.0 L 661.0 1670.0 L 667.0 1678.0 L 677.0 1679.0 L 683.0 1675.0 L 686.0 1666.0 L 686.0 1411.0 L 683.0 1404.0 L 654.0 1372.0 L 638.0 1351.0 L 609.0 1303.0 L 588.0 1252.0 L 581.0 1228.0 L 573.0 1187.0 L 565.0 1181.0 L 550.0 1180.0 L 535.0 1174.0 L 525.0 1165.0 L 520.0 1157.0 L 504.0 1072.0 L 484.0 993.0 L 480.0 969.0 L 480.0 923.0 L 483.0 908.0 L 487.0 899.0 L 493.0 892.0 L 496.0 891.0 L 506.0 893.0 L 513.0 897.0 L 519.0 897.0 L 524.0 895.0 L 529.0 887.0 L 522.0 858.0 L 516.0 817.0 L 516.0 723.0 L 520.0 685.0 L 528.0 639.0 L 539.0 596.0 L 550.0 563.0 L 568.0 520.0 L 586.0 486.0 L 611.0 447.0 L 643.0 407.0 L 678.0 372.0 L 724.0 336.0 L 760.0 314.0 L 816.0 289.0 L 867.0 274.0 L 916.0 266.0 L 949.0 264.0 L 1003.0 266.0 L 1052.0 274.0 L 1103.0 289.0 L 1159.0 314.0 L 1195.0 336.0 L 1241.0 372.0 L 1288.0 421.0 L 1308.0 447.0 L 1333.0 486.0 L 1361.0 543.0 L 1380.0 596.0 L 1389.0 630.0 L 1397.0 671.0 L 1403.0 723.0 L 1403.0 817.0 L 1397.0 858.0 L 1390.0 887.0 L 1392.0 892.0 L 1400.0 897.0 L 1406.0 897.0 L 1419.0 891.0 L 1426.0 892.0 L 1432.0 899.0 L 1436.0 908.0 L 1440.0 936.0 L 1440.0 955.0 L 1437.0 983.0 L 1418.0 1058.0 L 1399.0 1157.0 L 1394.0 1165.0 L 1384.0 1174.0 L 1373.0 1179.0 L 1352.0 1182.0 L 1346.0 1187.0 L 1341.0 1215.0 L 1331.0 1252.0 L 1310.0 1303.0 L 1281.0 1351.0 L 1265.0 1372.0 L 1236.0 1404.0 L 1233.0 1411.0 L 1233.0 1666.0 L 1234.0 1672.0 L 1238.0 1677.0 L 1242.0 1679.0 L 1252.0 1678.0 L 1258.0 1670.0 L 1258.0 1417.0 L 1295.0 1374.0 L 1311.0 1351.0 L 1330.0 1318.0 L 1346.0 1283.0 L 1363.0 1229.0 L 1367.0 1206.0 L 1387.0 1200.0 L 1400.0 1193.0 L 1414.0 1180.0 L 1422.0 1166.0 L 1426.0 1153.0 L 1441.0 1068.0 L 1457.0 1007.0 L 1463.0 975.0 L 1464.0 925.0 L 1458.0 896.0 L 1450.0 881.0 L 1442.0 873.0 L 1429.0 867.0 L 1420.0 866.0 L 1428.0 813.0 L 1428.0 729.0 L 1419.0 654.0 L 1403.0 587.0 L 1384.0 534.0 L 1363.0 489.0 L 1338.0 447.0 L 1315.0 415.0 L 1285.0 380.0 L 1249.0 346.0 L 1221.0 324.0 L 1186.0 301.0 L 1146.0 280.0 L 1112.0 266.0 L 1057.0 250.0 L 1009.0 242.0 L 985.0 240.0 L 920.0 241.0 L 882.0 246.0 Z" fill="#FFF" fill-rule="evenodd"/>
</svg>
