<svg width="24" height="24" viewBox="0 0 24 24" fill="none" xmlns="http://www.w3.org/2000/svg">
<path d="M4.19549 5.13939C4.13351 5.07741 4.08435 5.00383 4.05081 4.92286C4.01726 4.84188 4 4.75509 4 4.66744C4 4.57979 4.01726 4.493 4.05081 4.41202C4.08435 4.33104 4.13351 4.25747 4.19549 4.19549C4.25747 4.13351 4.33104 4.08435 4.41202 4.05081C4.493 4.01726 4.57979 4 4.66744 4C4.75509 4 4.84188 4.01726 4.92286 4.05081C5.00383 4.08435 5.07741 4.13351 5.13939 4.19549L12 11.0574L18.8606 4.19549C18.9226 4.13351 18.9962 4.08435 19.0771 4.05081C19.1581 4.01726 19.2449 4 19.3326 4C19.4202 4 19.507 4.01726 19.588 4.05081C19.669 4.08435 19.7425 4.13351 19.8045 4.19549C19.8665 4.25747 19.9157 4.33104 19.9492 4.41202C19.9827 4.493 20 4.57979 20 4.66744C20 4.75509 19.9827 4.84188 19.9492 4.92286C19.9157 5.00383 19.8665 5.07741 19.8045 5.13939L12.9426 12L19.8045 18.8606C19.8665 18.9226 19.9157 18.9962 19.9492 19.0771C19.9827 19.1581 20 19.2449 20 19.3326C20 19.4202 19.9827 19.507 19.9492 19.588C19.9157 19.669 19.8665 19.7425 19.8045 19.8045C19.7425 19.8665 19.669 19.9157 19.588 19.9492C19.507 19.9827 19.4202 20 19.3326 20C19.2449 20 19.1581 19.9827 19.0771 19.9492C18.9962 19.9157 18.9226 19.8665 18.8606 19.8045L12 12.9426L5.13939 19.8045C5.07741 19.8665 5.00383 19.9157 4.92286 19.9492C4.84188 19.9827 4.75509 20 4.66744 20C4.57979 20 4.493 19.9827 4.41202 19.9492C4.33104 19.9157 4.25747 19.8665 4.19549 19.8045C4.13351 19.7425 4.08435 19.669 4.05081 19.588C4.01726 19.507 4 19.4202 4 19.3326C4 19.2449 4.01726 19.1581 4.05081 19.0771C4.08435 18.9962 4.13351 18.9226 4.19549 18.8606L11.0574 12L4.19549 5.13939Z" fill="#611232"/>
</svg>
