<svg width="24" height="24" viewBox="0 0 24 24" fill="none" xmlns="http://www.w3.org/2000/svg">
<rect width="24" height="24" rx="4" fill="#FDF8E3"/>
<path d="M7.2 7H13.2C13.5183 7 13.8235 7.12643 14.0485 7.35147C14.2736 7.57652 14.4 7.88174 14.4 8.2V11.8C14.4 12.1183 14.2736 12.4235 14.0485 12.6485C13.8235 12.8736 13.5183 13 13.2 13H11.4L9.6 14.8L7.8 13H7.2C6.88174 13 6.57652 12.8736 6.35147 12.6485C6.12643 12.4235 6 12.1183 6 11.8V8.2C6 7.88174 6.12643 7.57652 6.35147 7.35147C6.57652 7.12643 6.88174 7 7.2 7Z" stroke="#A57F2C" stroke-linecap="round" stroke-linejoin="round"/>
<path d="M14.4 10H16.8C17.1183 10 17.4235 10.1264 17.6485 10.3515C17.8736 10.5765 18 10.8817 18 11.2V14.8C18 15.1183 17.8736 15.4235 17.6485 15.6485C17.4235 15.8736 17.1183 16 16.8 16H15.6L14.4 17.8L12.6 16H10.8C10.4817 16 10.1765 15.8736 9.95148 15.6485C9.72643 15.4235 9.60001 15.1183 9.60001 14.8" stroke="#A57F2C" stroke-linecap="round" stroke-linejoin="round"/>
</svg>
