<svg width="16" height="16" viewBox="0 0 16 16" fill="none" xmlns="http://www.w3.org/2000/svg">
<path d="M9.7998 7.0998C9.7998 7.02024 9.83141 6.94393 9.88767 6.88767C9.94393 6.83141 10.0202 6.7998 10.0998 6.7998H10.6998C10.7794 6.7998 10.8557 6.83141 10.9119 6.88767C10.9682 6.94393 10.9998 7.02024 10.9998 7.0998V7.6998C10.9998 7.77937 10.9682 7.85568 10.9119 7.91194C10.8557 7.9682 10.7794 7.9998 10.6998 7.9998H10.0998C10.0202 7.9998 9.94393 7.9682 9.88767 7.91194C9.83141 7.85568 9.7998 7.77937 9.7998 7.6998V7.0998Z" fill="#98989A"/>
<path d="M4.625 2C4.72446 2 4.81984 2.03951 4.89016 2.10983C4.96049 2.18016 5 2.27554 5 2.375V2.75H11V2.375C11 2.27554 11.0395 2.18016 11.1098 2.10983C11.1802 2.03951 11.2755 2 11.375 2C11.4745 2 11.5698 2.03951 11.6402 2.10983C11.7105 2.18016 11.75 2.27554 11.75 2.375V2.75H12.5C12.8978 2.75 13.2794 2.90804 13.5607 3.18934C13.842 3.47064 14 3.85218 14 4.25V12.5C14 12.8978 13.842 13.2794 13.5607 13.5607C13.2794 13.842 12.8978 14 12.5 14H3.5C3.10218 14 2.72064 13.842 2.43934 13.5607C2.15804 13.2794 2 12.8978 2 12.5V4.25C2 3.85218 2.15804 3.47064 2.43934 3.18934C2.72064 2.90804 3.10218 2.75 3.5 2.75H4.25V2.375C4.25 2.27554 4.28951 2.18016 4.35984 2.10983C4.43016 2.03951 4.52554 2 4.625 2ZM2.75 5V12.5C2.75 12.6989 2.82902 12.8897 2.96967 13.0303C3.11032 13.171 3.30109 13.25 3.5 13.25H12.5C12.6989 13.25 12.8897 13.171 13.0303 13.0303C13.171 12.8897 13.25 12.6989 13.25 12.5V5H2.75Z" fill="#98989A"/>
</svg>
