<svg width="24" height="24" viewBox="0 0 24 24" fill="none" xmlns="http://www.w3.org/2000/svg">
<path fill-rule="evenodd" clip-rule="evenodd" d="M8.56326 3.00011C8.59768 3.00018 8.63216 3.00024 8.66667 3.00024C8.70122 3.00024 8.73567 3.00018 8.77011 3.00011C9.17978 2.99944 9.58245 2.99877 9.94111 3.09488C10.8998 3.35174 11.6484 4.10048 11.9053 5.05907C12.0014 5.41778 12.0008 5.82046 12.0001 6.23015C12.0001 6.26458 12 6.29906 12 6.33357H20.8889C21.5026 6.33357 22 6.83102 22 7.44468C22 8.05832 21.5026 8.55579 20.8889 8.55579H12C12 8.5903 12.0001 8.62478 12.0001 8.65921C12.0008 9.0689 12.0014 9.47158 11.9053 9.83034C11.6484 10.7889 10.8998 11.5377 9.94111 11.7944C9.58245 11.8906 9.17978 11.8899 8.77011 11.8892C8.73567 11.8892 8.70122 11.8891 8.66667 11.8891C8.63216 11.8891 8.59768 11.8892 8.56325 11.8892C8.15356 11.8899 7.75088 11.8906 7.39217 11.7944C6.43358 11.5377 5.68483 10.7889 5.42799 9.83034C5.33187 9.47157 5.33253 9.0689 5.33322 8.6592C5.33328 8.62478 5.33333 8.59029 5.33333 8.55579H3.11111C2.49747 8.55579 2 8.05832 2 7.44468C2 6.83102 2.49747 6.33357 3.11111 6.33357H5.33333C5.33333 6.29906 5.33328 6.26458 5.33322 6.23015C5.33253 5.82046 5.33187 5.41778 5.42799 5.05907C5.68483 4.10048 6.43358 3.35174 7.39217 3.09488C7.75088 2.99877 8.15356 2.99944 8.56326 3.00011ZM8.10957 5.2284C7.99106 5.2338 7.96317 5.2425 7.96732 5.24138C7.7756 5.29276 7.62586 5.4425 7.57449 5.63422C7.57356 5.63812 7.56626 5.67226 7.5615 5.77646C7.55582 5.90094 7.55556 6.06517 7.55556 6.33357V8.55579C7.55556 8.82418 7.55582 8.98841 7.5615 9.11289C7.5669 9.2314 7.5756 9.25928 7.57449 9.25514C7.62586 9.44685 7.7756 9.5966 7.96732 9.64797C7.96317 9.64686 7.99106 9.65555 8.10957 9.66096C8.23403 9.66664 8.39827 9.66689 8.66667 9.66689C8.93511 9.66689 9.09933 9.66664 9.22378 9.66096C9.34222 9.65555 9.37011 9.64686 9.366 9.64797C9.55778 9.5966 9.70744 9.44685 9.75889 9.25514C9.75778 9.25928 9.76645 9.2314 9.77178 9.11289C9.77756 8.98841 9.77778 8.82418 9.77778 8.55579V6.33357C9.77778 6.06517 9.77756 5.90094 9.77178 5.77646C9.76645 5.65796 9.75778 5.63007 9.75889 5.63422M8.10957 5.2284C8.23403 5.22272 8.39827 5.22246 8.66667 5.22246L8.10957 5.2284ZM8.66667 5.22246C8.93511 5.22246 9.09933 5.22272 9.22378 5.2284L8.66667 5.22246ZM9.22378 5.2284C9.328 5.23315 9.36211 5.24045 9.366 5.24138L9.22378 5.2284ZM15.2299 11.889C15.2643 11.8891 15.2988 11.8891 15.3333 11.8891C15.3679 11.8891 15.4023 11.8891 15.4368 11.889C15.8464 11.8883 16.2491 11.8877 16.6078 11.9838C17.5664 12.2407 18.3151 12.9893 18.572 13.948C18.6681 14.3067 18.6674 14.7093 18.6668 15.119C18.6668 15.1534 18.6667 15.1879 18.6667 15.2224H20.8889C21.5026 15.2224 22 15.7199 22 16.3336C22 16.9472 21.5026 17.4447 20.8889 17.4447H18.6667C18.6667 17.4792 18.6668 17.5137 18.6668 17.5481C18.6674 17.9578 18.6681 18.3604 18.572 18.7192C18.3151 19.6778 17.5664 20.4266 16.6078 20.6833C16.2491 20.7794 15.8464 20.7788 15.4368 20.7781C15.4023 20.7781 15.3679 20.778 15.3333 20.778C15.2988 20.778 15.2643 20.7781 15.2299 20.7781C14.8202 20.7788 14.4176 20.7794 14.0589 20.6833C13.1002 20.4266 12.3516 19.6778 12.0947 18.7192C11.9986 18.3604 11.9992 17.9578 11.9999 17.5481C11.9999 17.5137 12 17.4792 12 17.4447H3.11111C2.49747 17.4447 2 16.9472 2 16.3336C2 15.7199 2.49747 15.2224 3.11111 15.2224H12C12 15.188 11.9999 15.1534 11.9999 15.119C11.9992 14.7093 11.9986 14.3067 12.0947 13.948C12.3516 12.9893 13.1002 12.2407 14.0589 11.9838C14.4176 11.8877 14.8202 11.8883 15.2299 11.889ZM14.7762 14.1173C14.6578 14.1227 14.6299 14.1313 14.634 14.1302C14.4422 14.1817 14.2926 14.3314 14.2411 14.5231C14.2422 14.519 14.2336 14.5469 14.2282 14.6653C14.2224 14.7898 14.2222 14.9541 14.2222 15.2224V17.4447C14.2222 17.7131 14.2224 17.8773 14.2282 18.0018C14.2336 18.1203 14.2422 18.1482 14.2411 18.144C14.2926 18.3358 14.4422 18.4854 14.634 18.5369C14.6299 18.5358 14.6578 18.5444 14.7762 18.5499C14.9007 18.5556 15.0649 18.5558 15.3333 18.5558C15.6018 18.5558 15.766 18.5556 15.8904 18.5499C16.0089 18.5444 16.0368 18.5358 16.0327 18.5369C16.2244 18.4854 16.3741 18.3358 16.4256 18.144C16.4244 18.1482 16.4331 18.1203 16.4384 18.0018C16.4442 17.8773 16.4444 17.7131 16.4444 17.4447V15.2224C16.4444 14.9541 16.4442 14.7898 16.4384 14.6653C16.4331 14.5469 16.4244 14.519 16.4256 14.5231C16.3741 14.3314 16.2244 14.1817 16.0327 14.1302C16.0368 14.1313 16.0089 14.1227 15.8904 14.1173C15.766 14.1116 15.6018 14.1113 15.3333 14.1113C15.0649 14.1113 14.9007 14.1116 14.7762 14.1173Z" fill="#222222"/>
</svg>
