<svg width="24" height="24" viewBox="0 0 24 24" fill="none" xmlns="http://www.w3.org/2000/svg">
<rect width="24" height="24" rx="4" fill="#FDF8E3"/>
<path d="M16.3111 9.51144H14.5333C14.439 9.51144 14.3486 9.5489 14.2819 9.61558C14.2152 9.68226 14.1778 9.77269 14.1778 9.86699C14.1778 9.96129 14.2152 10.0517 14.2819 10.1184C14.3486 10.1851 14.439 10.2225 14.5333 10.2225H16.3111C16.4054 10.2225 16.4958 10.26 16.5625 10.3267C16.6292 10.3934 16.6667 10.4838 16.6667 10.5781V16.267C16.6667 16.3613 16.6292 16.4517 16.5625 16.5184C16.4958 16.5851 16.4054 16.6225 16.3111 16.6225H7.06667C6.97237 16.6225 6.88193 16.5851 6.81525 16.5184C6.74857 16.4517 6.71111 16.3613 6.71111 16.267V10.5781C6.71111 10.4838 6.74857 10.3934 6.81525 10.3267C6.88193 10.26 6.97237 10.2225 7.06667 10.2225H9.91111C9.91111 10.4111 9.98603 10.592 10.1194 10.7254C10.2528 10.8587 10.4336 10.9337 10.6222 10.9337H12.7556C12.9442 10.9337 13.125 10.8587 13.2584 10.7254C13.3917 10.592 13.4667 10.4111 13.4667 10.2225V7.3781C13.4667 7.1895 13.3917 7.00863 13.2584 6.87527C13.125 6.74191 12.9442 6.66699 12.7556 6.66699H10.6222C10.4336 6.66699 10.2528 6.74191 10.1194 6.87527C9.98603 7.00863 9.91111 7.1895 9.91111 7.3781V9.51144H7.06667C6.78377 9.51144 6.51246 9.62382 6.31242 9.82386C6.11238 10.0239 6 10.2952 6 10.5781V16.267C6 16.5499 6.11238 16.8212 6.31242 17.0212C6.51246 17.2213 6.78377 17.3337 7.06667 17.3337H16.3111C16.594 17.3337 16.8653 17.2213 17.0654 17.0212C17.2654 16.8212 17.3778 16.5499 17.3778 16.267V10.5781C17.3778 10.2952 17.2654 10.0239 17.0654 9.82386C16.8653 9.62382 16.594 9.51144 16.3111 9.51144ZM10.6222 7.3781H12.7556V10.2225H10.6222V7.3781Z" fill="#A57F2C"/>
<path d="M7.42223 15.5557C7.42223 15.65 7.45969 15.7404 7.52637 15.8071C7.59305 15.8738 7.68348 15.9113 7.77778 15.9113H10.6222C10.7165 15.9113 10.807 15.8738 10.8736 15.8071C10.9403 15.7404 10.9778 15.65 10.9778 15.5557C10.9777 15.2646 10.906 14.9779 10.7692 14.721C10.6324 14.464 10.4345 14.2446 10.1931 14.0819C10.3955 13.8845 10.5345 13.6311 10.5922 13.3543C10.65 13.0775 10.6239 12.7897 10.5173 12.5278C10.4107 12.2658 10.2285 12.0416 9.99382 11.8838C9.75918 11.7259 9.4828 11.6416 9.2 11.6416C8.91721 11.6416 8.64083 11.7259 8.40618 11.8838C8.17154 12.0416 7.98927 12.2658 7.88268 12.5278C7.77609 12.7897 7.75 13.0775 7.80776 13.3543C7.86552 13.6311 8.0045 13.8845 8.20694 14.0819C7.96546 14.2446 7.76762 14.464 7.6308 14.721C7.49398 14.9779 7.42235 15.2646 7.42223 15.5557ZM8.48889 13.0668C8.48889 12.9262 8.5306 12.7887 8.60874 12.6717C8.68687 12.5548 8.79793 12.4637 8.92787 12.4098C9.05781 12.356 9.20079 12.3419 9.33873 12.3694C9.47668 12.3968 9.60338 12.4645 9.70284 12.564C9.80229 12.6634 9.87001 12.7901 9.89745 12.9281C9.92489 13.066 9.91081 13.209 9.85698 13.3389C9.80316 13.4689 9.71202 13.5799 9.59508 13.6581C9.47813 13.7362 9.34065 13.7779 9.2 13.7779C9.01141 13.7779 8.83053 13.703 8.69717 13.5696C8.56381 13.4363 8.48889 13.2554 8.48889 13.0668ZM9.2 14.489C9.42055 14.4893 9.6356 14.5578 9.81569 14.6851C9.99577 14.8124 10.1321 14.9923 10.2059 15.2002H8.19414C8.26794 14.9923 8.40424 14.8124 8.58432 14.6851C8.7644 14.5578 8.97946 14.4893 9.2 14.489Z" fill="#A57F2C"/>
<path d="M14.8889 15.2004H12.7555C12.6613 15.2004 12.5708 15.1629 12.5041 15.0962C12.4375 15.0295 12.4 14.9391 12.4 14.8448C12.4 14.7505 12.4375 14.6601 12.5041 14.5934C12.5708 14.5267 12.6613 14.4893 12.7555 14.4893H14.8889C14.9832 14.4893 15.0736 14.5267 15.1403 14.5934C15.207 14.6601 15.2444 14.7505 15.2444 14.8448C15.2444 14.9391 15.207 15.0295 15.1403 15.0962C15.0736 15.1629 14.9832 15.2004 14.8889 15.2004Z" fill="#A57F2C"/>
<path d="M15.6 13.7785H12.7555C12.6613 13.7785 12.5708 13.741 12.5041 13.6744C12.4375 13.6077 12.4 13.5172 12.4 13.4229C12.4 13.3286 12.4375 13.2382 12.5041 13.1715C12.5708 13.1048 12.6613 13.0674 12.7555 13.0674H15.6C15.6943 13.0674 15.7847 13.1048 15.8514 13.1715C15.9181 13.2382 15.9555 13.3286 15.9555 13.4229C15.9555 13.5172 15.9181 13.6077 15.8514 13.6744C15.7847 13.741 15.6943 13.7785 15.6 13.7785Z" fill="#A57F2C"/>
<path d="M15.6 12.3556H12.7555C12.6613 12.3556 12.5708 12.3182 12.5041 12.2515C12.4375 12.1848 12.4 12.0944 12.4 12.0001C12.4 11.9058 12.4375 11.8154 12.5041 11.7487C12.5708 11.682 12.6613 11.6445 12.7555 11.6445H15.6C15.6943 11.6445 15.7847 11.682 15.8514 11.7487C15.9181 11.8154 15.9555 11.9058 15.9555 12.0001C15.9555 12.0944 15.9181 12.1848 15.8514 12.2515C15.7847 12.3182 15.6943 12.3556 15.6 12.3556Z" fill="#A57F2C"/>
<path d="M11.696 9.51189C11.6493 9.51213 11.603 9.50316 11.5598 9.48551C11.5166 9.46785 11.4773 9.44186 11.4441 9.40901C11.3771 9.34266 11.3391 9.25241 11.3387 9.15811C11.3382 9.06382 11.3752 8.97319 11.4416 8.90618C11.5079 8.83917 11.5982 8.80125 11.6925 8.80078H11.696C11.7903 8.80078 11.8807 8.83824 11.9474 8.90492C12.0141 8.9716 12.0516 9.06204 12.0516 9.15634C12.0516 9.25064 12.0141 9.34107 11.9474 9.40775C11.8807 9.47443 11.7903 9.51189 11.696 9.51189Z" fill="#A57F2C"/>
</svg>
