<svg width="196" height="173" viewBox="0 0 196 173" fill="none" xmlns="http://www.w3.org/2000/svg">
<g clip-path="url(#clip0_4834_2496)">
<path d="M41.6953 115.876L0.263672 115.75L0.434142 59.5615L29.0832 59.6482L41.827 72.4479L41.6953 115.876Z" fill="#FDF8E3"/>
<path d="M29.0832 59.6484L29.0444 72.4094L41.8271 72.4481L29.0832 59.6484Z" fill="#A57F2C"/>
<path d="M42.0879 72.4325C42.0866 72.4094 42.0821 72.387 42.0747 72.3648C42.0718 72.3564 42.0697 72.348 42.0657 72.3398C42.0531 72.3119 42.037 72.2853 42.0146 72.2626L29.2707 59.463C29.248 59.4403 29.2214 59.4242 29.1937 59.4113C29.1855 59.4076 29.1773 59.4053 29.1689 59.4024C29.1467 59.3947 29.124 59.39 29.1005 59.3887C29.095 59.3884 29.09 59.3855 29.0844 59.3855L0.435676 59.2988H0.434884C0.365218 59.2988 0.298191 59.3262 0.248845 59.3755C0.199234 59.4248 0.171262 59.4917 0.170998 59.5617L4.42887e-07 115.75C-0.000263443 115.895 0.11743 116.014 0.263094 116.014L41.6947 116.14H41.6955C41.7652 116.14 41.8322 116.112 41.8816 116.063C41.9312 116.014 41.9591 115.947 41.9594 115.877L42.0911 72.4489C42.0911 72.4431 42.0882 72.4381 42.0879 72.4323V72.4325ZM29.3454 60.2857L35.2279 66.1938L41.1912 72.1831L29.3095 72.147L29.3454 60.2857ZM0.528563 115.488L0.69745 59.8262L28.8184 59.9113L28.7807 72.4088C28.7804 72.5542 28.8981 72.6725 29.0438 72.6731L41.5625 72.711L41.4324 115.612L0.528563 115.488Z" fill="#FDF8E3"/>
<path d="M126.159 113.627L69.6606 113.456L69.8931 36.834L108.961 36.9523L126.339 54.4066L126.159 113.627Z" fill="#FDF8E3"/>
<path opacity="0.3" d="M108.961 36.9521L108.908 54.3538L126.339 54.4065L108.961 36.9521Z" fill="#A57F2C"/>
<path d="M126.6 54.3906C126.599 54.3674 126.594 54.345 126.587 54.3229C126.584 54.3144 126.582 54.306 126.578 54.2978C126.565 54.2699 126.549 54.2433 126.527 54.2207L109.148 36.7663C109.125 36.7437 109.099 36.7273 109.071 36.7144C109.063 36.7107 109.055 36.7084 109.046 36.7055C109.024 36.6978 109.001 36.6931 108.978 36.6918C108.972 36.6915 108.967 36.6886 108.962 36.6886L69.8941 36.5703H69.8933C69.8237 36.5703 69.7567 36.5977 69.7073 36.647C69.6577 36.6962 69.6297 36.7631 69.6295 36.8332L69.397 113.456C69.3967 113.601 69.5144 113.719 69.6601 113.72L126.159 113.891H126.16C126.229 113.891 126.297 113.864 126.346 113.814C126.395 113.765 126.423 113.698 126.424 113.628L126.603 54.4072C126.603 54.4014 126.601 54.3964 126.6 54.3906H126.6ZM109.223 37.5888L125.703 54.1411L109.173 54.091L109.223 37.5888ZM69.9255 113.194L70.1564 37.098L108.696 37.2147L108.644 54.3529C108.644 54.4983 108.762 54.6166 108.907 54.6171L126.075 54.669L125.896 113.363L69.9253 113.194H69.9255Z" fill="#FDF8E3"/>
<path d="M195.604 115.876L154.173 115.75L154.343 59.5615L182.992 59.6482L195.736 72.4479L195.604 115.876Z" fill="#FDF8E3"/>
<path d="M182.992 59.6484L182.954 72.4094L195.736 72.4481L182.992 59.6484Z" fill="#A57F2C"/>
<path d="M195.997 72.4325C195.996 72.4094 195.991 72.387 195.984 72.3648C195.981 72.3564 195.979 72.348 195.975 72.3398C195.962 72.3119 195.946 72.2853 195.924 72.2626L183.18 59.463C183.157 59.4403 183.131 59.4242 183.103 59.4113C183.095 59.4076 183.086 59.4053 183.078 59.4024C183.056 59.3947 183.033 59.39 183.01 59.3887C183.004 59.3884 182.999 59.3855 182.994 59.3855L154.345 59.2988H154.344C154.274 59.2988 154.207 59.3262 154.158 59.3755C154.108 59.4248 154.08 59.4917 154.08 59.5617L153.91 115.75C153.909 115.896 154.027 116.014 154.173 116.015L195.604 116.14H195.605C195.675 116.14 195.742 116.113 195.791 116.063C195.841 116.014 195.869 115.947 195.869 115.877L196.001 72.4494C196.001 72.4436 195.998 72.4386 195.998 72.4328L195.997 72.4325ZM183.254 60.2857L189.137 66.1938L195.1 72.1831L183.218 72.147L183.254 60.2857H183.254ZM154.438 115.488L154.607 59.8262L182.728 59.9113L182.69 72.4088C182.689 72.5542 182.807 72.6725 182.953 72.6731L195.471 72.711L195.341 115.612L154.437 115.488H154.438Z" fill="#FDF8E3"/>
<path d="M126.424 55.0346C119.641 47.261 110.234 42.589 99.9293 41.879C89.6272 41.169 79.6666 44.5055 71.8775 51.2772C58.9587 62.5094 54.9899 81.1837 62.2253 96.6928C63.6622 99.7777 65.5276 102.677 67.7651 105.315L68.2409 105.877L32.8287 143.395C31.8112 144.474 31.5568 146.037 32.1857 147.382C32.3788 147.796 32.6451 148.165 32.9818 148.481C34.4279 149.842 36.7126 149.774 38.0764 148.33L73.479 110.819L74.0701 111.261C80.0173 115.734 87.1185 118.37 94.6062 118.887C104.908 119.597 114.871 116.258 122.658 109.489C130.445 102.717 135.127 93.3255 135.838 83.0409C136.55 72.7563 133.205 62.8105 126.424 55.0346ZM128.645 82.5449C128.068 90.9109 124.26 98.5527 117.924 104.062C112.149 109.082 104.901 111.783 97.315 111.783C96.5801 111.783 95.843 111.758 95.1034 111.706C86.7208 111.129 79.0684 107.328 73.55 101.002C62.162 87.9456 63.5353 68.0745 76.6119 56.7034C82.9477 51.1965 91.0522 48.481 99.4348 49.0569C103.625 49.3462 107.634 50.4394 111.284 52.2548C114.935 54.0654 118.228 56.5975 120.988 59.7601C122.945 62.0057 124.568 64.4957 125.812 67.1598C128.033 71.9212 129.013 77.24 128.645 82.5446L128.645 82.5449Z" fill="#A57F2C"/>
</g>
<defs>
<clipPath id="clip0_4834_2496">
<rect width="196" height="173" fill="white"/>
</clipPath>
</defs>
</svg>
