<svg width="24" height="24" viewBox="0 0 24 24" fill="none" xmlns="http://www.w3.org/2000/svg">
<rect width="24" height="24" rx="4" fill="#FDF8E3"/>
<path d="M13.8 11.0998C13.8 11.0202 13.8316 10.9439 13.8879 10.8877C13.9441 10.8314 14.0204 10.7998 14.1 10.7998H14.7C14.7796 10.7998 14.8559 10.8314 14.9121 10.8877C14.9684 10.9439 15 11.0202 15 11.0998V11.6998C15 11.7794 14.9684 11.8557 14.9121 11.9119C14.8559 11.9682 14.7796 11.9998 14.7 11.9998H14.1C14.0204 11.9998 13.9441 11.9682 13.8879 11.9119C13.8316 11.8557 13.8 11.7794 13.8 11.6998V11.0998Z" fill="#A57F2C"/>
<path d="M8.625 6C8.72446 6 8.81984 6.03951 8.89016 6.10983C8.96049 6.18016 9 6.27554 9 6.375V6.75H15V6.375C15 6.27554 15.0395 6.18016 15.1098 6.10983C15.1802 6.03951 15.2755 6 15.375 6C15.4745 6 15.5698 6.03951 15.6402 6.10983C15.7105 6.18016 15.75 6.27554 15.75 6.375V6.75H16.5C16.8978 6.75 17.2794 6.90804 17.5607 7.18934C17.842 7.47064 18 7.85218 18 8.25V16.5C18 16.8978 17.842 17.2794 17.5607 17.5607C17.2794 17.842 16.8978 18 16.5 18H7.5C7.10218 18 6.72064 17.842 6.43934 17.5607C6.15804 17.2794 6 16.8978 6 16.5V8.25C6 7.85218 6.15804 7.47064 6.43934 7.18934C6.72064 6.90804 7.10218 6.75 7.5 6.75H8.25V6.375C8.25 6.27554 8.28951 6.18016 8.35984 6.10983C8.43016 6.03951 8.52554 6 8.625 6ZM6.75 9V16.5C6.75 16.6989 6.82902 16.8897 6.96967 17.0303C7.11032 17.171 7.30109 17.25 7.5 17.25H16.5C16.6989 17.25 16.8897 17.171 17.0303 17.0303C17.171 16.8897 17.25 16.6989 17.25 16.5V9H6.75Z" fill="#A57F2C"/>
</svg>
